<svg width="40" height="40" viewBox="0 0 40 40" fill="none" xmlns="http://www.w3.org/2000/svg">
<g clip-path="url(#clip0_3_260)">
<mask id="mask0_3_260" style="mask-type:luminance" maskUnits="userSpaceOnUse" x="0" y="0" width="40" height="40">
<path d="M0 3.8147e-06H40V40H0V3.8147e-06Z" fill="white"/>
</mask>
<g mask="url(#mask0_3_260)">
<path fill-rule="evenodd" clip-rule="evenodd" d="M6.58078 8.16461C6.82447 8.37754 7.19463 8.3526 7.40755 8.10891C8.04762 7.37637 8.74579 6.69651 9.49478 6.07655C9.74406 5.8702 9.77887 5.50084 9.57253 5.25156C9.36619 5.00228 8.99683 4.96747 8.74754 5.17381C7.94997 5.834 7.20658 6.55789 6.52508 7.33785C6.31216 7.58153 6.3371 7.95169 6.58078 8.16461Z" fill="#FD6442"/>
<path fill-rule="evenodd" clip-rule="evenodd" d="M2.71109 16.3629C3.02646 16.4354 3.34092 16.2386 3.41345 15.9232C3.86517 13.959 4.63639 12.1176 5.66918 10.457C5.84009 10.1822 5.75588 9.82092 5.48109 9.65002C5.2063 9.47911 4.84499 9.56332 4.67408 9.83811C3.57422 11.6065 2.75262 13.568 2.27138 15.6605C2.19885 15.9759 2.39572 16.2904 2.71109 16.3629Z" fill="#FD6442"/>
<path fill-rule="evenodd" clip-rule="evenodd" d="M9.45363 34.6553C9.66199 34.4077 9.63018 34.0381 9.38258 33.8297C5.45201 30.5222 2.95312 25.5552 2.95312 20.0003C2.95312 19.7892 2.95676 19.5789 2.96388 19.3695C2.97488 19.0461 2.72161 18.775 2.3982 18.764C2.07478 18.753 1.80368 19.0063 1.79268 19.3297C1.78512 19.5522 1.78125 19.7758 1.78125 20.0003C1.78125 25.9144 4.44331 31.2049 8.62805 34.7264C8.87565 34.9347 9.24528 34.9029 9.45363 34.6553Z" fill="#FD6442"/>
<path fill-rule="evenodd" clip-rule="evenodd" d="M11.6574 36.8138C14.3948 38.3345 17.543 39.2 20.8907 39.2C24.2499 39.2 27.4083 38.3286 30.1522 36.7982C30.4348 36.6406 30.5361 36.2837 30.3785 36.0011C30.2209 35.7185 29.864 35.6172 29.5814 35.7748C27.0073 37.2104 24.0448 38.0281 20.8907 38.0281C17.7474 38.0281 14.7945 37.216 12.2266 35.7894C11.9437 35.6322 11.587 35.7342 11.4298 36.017C11.2726 36.2999 11.3746 36.6566 11.6574 36.8138Z" fill="#FD6442"/>
<path fill-rule="evenodd" clip-rule="evenodd" d="M32.3456 34.6403C32.5543 34.8876 32.9239 34.919 33.1713 34.7103C37.3456 31.1888 39.9998 25.9051 39.9998 19.9996C39.9998 16.2607 38.9356 12.7697 37.0944 9.81774C36.9231 9.54317 36.5617 9.45941 36.2871 9.63067C36.0126 9.80193 35.9288 10.1633 36.1001 10.4379C37.8284 13.209 38.8279 16.486 38.8279 19.9996C38.8279 25.5464 36.3364 30.507 32.4157 33.8146C32.1683 34.0232 32.1369 34.3929 32.3456 34.6403Z" fill="#FD6442"/>
<path fill-rule="evenodd" clip-rule="evenodd" d="M34.8258 7.72276C35.0628 7.50237 35.0762 7.13162 34.8559 6.89466C34.2368 6.22905 33.5711 5.60765 32.8641 5.03584C32.6125 4.83235 32.2435 4.87136 32.04 5.12297C31.8365 5.37459 31.8756 5.74353 32.1272 5.94702C32.7911 6.48397 33.4163 7.06757 33.9977 7.69274C34.2181 7.9297 34.5889 7.94314 34.8258 7.72276Z" fill="#FD6442"/>
<path fill-rule="evenodd" clip-rule="evenodd" d="M11.5435 3.91552C11.6986 4.19952 12.0546 4.30401 12.3386 4.14889C14.8802 2.76072 17.793 1.972 20.8908 1.972C23.909 1.972 26.7517 2.7208 29.2465 4.04322C29.5324 4.19478 29.8871 4.08585 30.0386 3.79993C30.1902 3.51401 30.0813 3.15937 29.7953 3.00781C27.1358 1.59804 24.1052 0.800124 20.8908 0.800124C17.5917 0.800124 14.4862 1.64062 11.7769 3.12042C11.4929 3.27554 11.3884 3.63152 11.5435 3.91552Z" fill="#FD6442"/>
<path fill-rule="evenodd" clip-rule="evenodd" d="M21.9445 8.20257C22.1155 8.47732 22.4768 8.56144 22.7516 8.39046C24.7908 7.12141 27.0374 6.12384 29.4522 5.45784C29.7642 5.3718 29.9473 5.04916 29.8613 4.7372C29.7752 4.42525 29.4526 4.2421 29.1406 4.32814C26.6158 5.02448 24.2658 6.06785 22.1324 7.39551C21.8576 7.56649 21.7735 7.92783 21.9445 8.20257Z" fill="#FD6442"/>
<path fill-rule="evenodd" clip-rule="evenodd" d="M14.5141 15.549C14.7786 15.7354 15.1442 15.6721 15.3306 15.4075C16.6357 13.5554 18.1838 11.8743 19.94 10.4171C20.189 10.2105 20.2234 9.84107 20.0167 9.59203C19.8101 9.343 19.4407 9.30863 19.1917 9.51527C17.3552 11.0392 15.7367 12.7967 14.3726 14.7325C14.1862 14.997 14.2496 15.3626 14.5141 15.549Z" fill="#FD6442"/>
<path fill-rule="evenodd" clip-rule="evenodd" d="M10.2903 34.0833C10.6115 34.044 10.8401 33.7517 10.8008 33.4305C10.1488 28.0998 11.1795 22.8971 13.5081 18.4068C13.6571 18.1195 13.545 17.7659 13.2577 17.6169C12.9704 17.4679 12.6168 17.58 12.4678 17.8673C10.0338 22.5609 8.95602 28.0005 9.63759 33.5728C9.67688 33.894 9.96912 34.1225 10.2903 34.0833Z" fill="#FD6442"/>
<path fill-rule="evenodd" clip-rule="evenodd" d="M19.837 8.20257C20.008 7.92783 19.9239 7.56649 19.6492 7.39551C17.4436 6.02294 15.0066 4.95427 12.3843 4.25867C12.0715 4.1757 11.7506 4.362 11.6677 4.67479C11.5847 4.98758 11.771 5.3084 12.0838 5.39137C14.5921 6.05671 16.9218 7.0785 19.03 8.39046C19.3047 8.56144 19.6661 8.47732 19.837 8.20257Z" fill="#FD6442"/>
<path fill-rule="evenodd" clip-rule="evenodd" d="M29.7134 20.0883C30.009 19.9566 30.1419 19.6102 30.0102 19.3146C28.326 15.534 25.7886 12.1704 22.5895 9.51583C22.3405 9.30919 21.9711 9.34355 21.7644 9.59259C21.5578 9.84162 21.5922 10.211 21.8412 10.4177C24.9005 12.9562 27.3283 16.174 28.9397 19.7915C29.0714 20.0871 29.4178 20.22 29.7134 20.0883Z" fill="#FD6442"/>
<path fill-rule="evenodd" clip-rule="evenodd" d="M31.5613 27.0097C31.8815 26.9624 32.1026 26.6645 32.0553 26.3444C31.8755 25.1284 31.6121 23.9251 31.2683 22.7453C31.1777 22.4346 30.8525 22.2562 30.5418 22.3467C30.2311 22.4372 30.0526 22.7625 30.1432 23.0732C30.4721 24.2019 30.7241 25.3529 30.896 26.5158C30.9433 26.8359 31.2412 27.0571 31.5613 27.0097Z" fill="#FD6442"/>
<path fill-rule="evenodd" clip-rule="evenodd" d="M31.4779 34.1709C31.7989 34.2112 32.0919 33.9836 32.1322 33.6625C32.2905 32.4014 32.361 31.1293 32.3412 29.8579C32.3362 29.5343 32.0699 29.2761 31.7463 29.2811C31.4227 29.2861 31.1645 29.5525 31.1695 29.876C31.1884 31.0921 31.121 32.3094 30.9695 33.5166C30.9292 33.8376 31.1568 34.1306 31.4779 34.1709Z" fill="#FD6442"/>
<path fill-rule="evenodd" clip-rule="evenodd" d="M3.52133 17.2429C3.59257 17.5585 3.90621 17.7567 4.22188 17.6855C6.88527 17.0844 9.54966 16.8029 12.1741 16.8162C12.4977 16.8179 12.7613 16.5569 12.763 16.2333C12.7646 15.9097 12.5036 15.646 12.18 15.6444C9.46755 15.6305 6.7146 15.9216 3.96392 16.5423C3.64826 16.6136 3.4501 16.9272 3.52133 17.2429Z" fill="#FD6442"/>
<path fill-rule="evenodd" clip-rule="evenodd" d="M29.1239 20.6047C29.2742 20.3181 29.1637 19.9639 28.877 19.8137C24.84 17.6973 20.404 16.3308 15.7886 15.8438C15.4668 15.8099 15.1783 16.0433 15.1444 16.3651C15.1104 16.6869 15.3438 16.9753 15.6656 17.0093C20.1313 17.4804 24.4247 18.8027 28.3329 20.8516C28.6195 21.0018 28.9737 20.8913 29.1239 20.6047Z" fill="#FD6442"/>
<path fill-rule="evenodd" clip-rule="evenodd" d="M38.324 27.7611C38.5578 27.5372 38.5658 27.1663 38.342 26.9326C36.4253 24.9312 34.2948 23.1616 31.9987 21.6521C31.7283 21.4743 31.365 21.5494 31.1872 21.8198C31.0094 22.0902 31.0845 22.4536 31.3549 22.6313C33.5779 24.0927 35.6403 25.8058 37.4956 27.7432C37.7194 27.9769 38.0903 27.9849 38.324 27.7611Z" fill="#FD6442"/>
<path fill-rule="evenodd" clip-rule="evenodd" d="M30.7397 20.1536C31.0146 20.3244 31.3759 20.24 31.5466 19.9651C33.3224 17.1066 34.7225 13.9742 35.6707 10.6308C35.759 10.3195 35.5781 9.99551 35.2668 9.90722C34.9555 9.81893 34.6315 9.99973 34.5432 10.3111C33.6253 13.5477 32.2701 16.5798 30.5512 19.3467C30.3804 19.6216 30.4648 19.9829 30.7397 20.1536Z" fill="#FD6442"/>
<path fill-rule="evenodd" clip-rule="evenodd" d="M11.623 34.9257C11.7285 35.2317 12.062 35.3941 12.368 35.2886C19.1744 32.9412 25.1295 28.6198 29.488 22.9403C29.685 22.6835 29.6366 22.3157 29.3799 22.1187C29.1232 21.9217 28.7553 21.9701 28.5583 22.2268C24.3383 27.7259 18.5729 31.9091 11.9859 34.1808C11.68 34.2863 11.5175 34.6198 11.623 34.9257Z" fill="#FD6442"/>
<path fill-rule="evenodd" clip-rule="evenodd" d="M18.5234 8.77145C18.5234 10.0795 19.5821 11.1475 20.8907 11.1475C22.1993 11.1475 23.258 10.0795 23.258 8.77145C23.258 7.4635 22.1993 6.39551 20.8907 6.39551C19.5822 6.39551 18.5234 7.4635 18.5234 8.77145ZM20.8907 9.97559C20.2347 9.97559 19.6953 9.43766 19.6953 8.77145C19.6953 8.10533 20.2347 7.56738 20.8907 7.56738C21.5467 7.56738 22.0861 8.10533 22.0861 8.77145C22.0861 9.43766 21.5467 9.97559 20.8907 9.97559Z" fill="#FD6442"/>
<path fill-rule="evenodd" clip-rule="evenodd" d="M11.5913 16.6364C11.5913 17.9443 12.65 19.0125 13.9586 19.0125C15.2672 19.0125 16.3258 17.9443 16.3258 16.6364C16.3258 15.3285 15.2672 14.2604 13.9586 14.2604C12.65 14.2604 11.5913 15.3285 11.5913 16.6364ZM13.9586 17.8406C13.3026 17.8406 12.7632 17.3026 12.7632 16.6364C12.7632 15.9703 13.3026 15.4323 13.9586 15.4323C14.6145 15.4323 15.154 15.9703 15.154 16.6364C15.154 17.3026 14.6145 17.8406 13.9586 17.8406Z" fill="#FD6442"/>
<path fill-rule="evenodd" clip-rule="evenodd" d="M27.792 21.2058C27.792 22.5137 28.8507 23.5818 30.1593 23.5818C31.4678 23.5818 32.5265 22.5137 32.5265 21.2058C32.5265 19.8979 31.4678 18.8298 30.1593 18.8298C28.8507 18.8298 27.792 19.8979 27.792 21.2058ZM30.1593 22.4099C29.5033 22.4099 28.9639 21.8719 28.9639 21.2058C28.9639 20.5396 29.5033 20.0016 30.1593 20.0016C30.8152 20.0016 31.3546 20.5396 31.3546 21.2058C31.3546 21.8719 30.8152 22.4099 30.1593 22.4099Z" fill="#FD6442"/>
<path fill-rule="evenodd" clip-rule="evenodd" d="M8.11914 35.2712C8.11914 36.5792 9.17784 37.6472 10.4864 37.6472C11.7949 37.6472 12.8537 36.5792 12.8537 35.2712C12.8537 33.9632 11.7949 32.8953 10.4864 32.8953C9.17785 32.8953 8.11914 33.9633 8.11914 35.2712ZM10.4864 36.4753C9.83044 36.4753 9.29102 35.9374 9.29102 35.2712C9.29102 34.6051 9.83043 34.0671 10.4864 34.0671C11.1424 34.0671 11.6819 34.6051 11.6819 35.2712C11.6819 35.9374 11.1424 36.4753 10.4864 36.4753Z" fill="#FD6442"/>
<path fill-rule="evenodd" clip-rule="evenodd" d="M29.0303 35.373C29.0303 36.6809 30.089 37.749 31.3975 37.749C32.7061 37.749 33.7649 36.681 33.7649 35.373C33.7649 34.0651 32.7061 32.997 31.3975 32.997C30.089 32.997 29.0303 34.0651 29.0303 35.373ZM31.3975 36.5771C30.7416 36.5771 30.2021 36.0392 30.2021 35.373C30.2021 34.7069 30.7416 34.1689 31.3975 34.1689C32.0535 34.1689 32.593 34.7069 32.593 35.373C32.593 36.0391 32.0535 36.5771 31.3975 36.5771Z" fill="#FD6442"/>
<path fill-rule="evenodd" clip-rule="evenodd" d="M33.1836 8.68038C33.1836 9.98833 34.2424 11.0564 35.5509 11.0564C36.8595 11.0564 37.9182 9.98829 37.9182 8.68038C37.9182 7.37247 36.8595 6.30437 35.5509 6.30437C34.2424 6.30437 33.1836 7.37243 33.1836 8.68038ZM35.5509 9.88452C34.895 9.88452 34.3555 9.3465 34.3555 8.68038C34.3555 8.01426 34.895 7.47624 35.5509 7.47624C36.2069 7.47624 36.7463 8.01423 36.7463 8.68038C36.7463 9.34653 36.2069 9.88452 35.5509 9.88452Z" fill="#FD6442"/>
<path fill-rule="evenodd" clip-rule="evenodd" d="M28.6616 4.47701C28.6616 5.78502 29.7203 6.85303 31.0289 6.85303C32.3374 6.85303 33.3962 5.78505 33.3962 4.47701C33.3962 3.16903 32.3374 2.10107 31.0289 2.10107C29.7203 2.10107 28.6616 3.16907 28.6616 4.47701ZM31.0289 5.68115C30.3729 5.68115 29.8335 5.14322 29.8335 4.47701C29.8335 3.8109 30.3729 3.27295 31.0289 3.27295C31.6849 3.27295 32.2244 3.81093 32.2244 4.47701C32.2244 5.14319 31.6849 5.68115 31.0289 5.68115Z" fill="#FD6442"/>
<path fill-rule="evenodd" clip-rule="evenodd" d="M8.11914 4.47701C8.11914 5.78502 9.17784 6.85303 10.4864 6.85303C11.7949 6.85303 12.8537 5.78505 12.8537 4.47701C12.8537 3.16903 11.7949 2.10107 10.4864 2.10107C9.17785 2.10107 8.11914 3.16907 8.11914 4.47701ZM10.4864 5.68115C9.83044 5.68115 9.29102 5.14322 9.29102 4.47701C9.29102 3.8109 9.83043 3.27295 10.4864 3.27295C11.1424 3.27295 11.6819 3.81093 11.6819 4.47701C11.6819 5.14319 11.1424 5.68115 10.4864 5.68115Z" fill="#FD6442"/>
<path fill-rule="evenodd" clip-rule="evenodd" d="M0 17.5583C0 18.8663 1.0587 19.9343 2.36727 19.9343C3.67583 19.9343 4.73453 18.8663 4.73453 17.5583C4.73453 16.2504 3.67582 15.1824 2.36727 15.1824C1.05871 15.1824 0 16.2504 0 17.5583ZM2.36727 18.7625C1.7113 18.7625 1.17187 18.2245 1.17187 17.5583C1.17187 16.8922 1.71129 16.3542 2.36727 16.3542C3.02324 16.3542 3.56266 16.8922 3.56266 17.5583C3.56266 18.2245 3.02323 18.7625 2.36727 18.7625Z" fill="#FD6442"/>
</g>
</g>
<defs>
<clipPath id="clip0_3_260">
<rect width="40" height="40" fill="white"/>
</clipPath>
</defs>
</svg>
