<svg width="50" height="50" viewBox="0 0 50 50" fill="none" xmlns="http://www.w3.org/2000/svg">
<g clip-path="url(#clip0_111_12018)">
<path d="M35.3516 0H5.37109C2.40947 0 0 2.40947 0 5.37109V7.8125H35.3516V0Z" fill="#FD6442"/>
<path d="M44.6289 0H38.2812V7.8125H50V5.37109C50 2.40947 47.5905 0 44.6289 0Z" fill="#FD6442"/>
<path d="M22.5586 23.7793L13.7695 27.4414V31.3477L22.5586 35.0098V23.7793Z" fill="#FD6442"/>
<path d="M9.375 30.8594H10.8398V27.9297H9.375C8.56729 27.9297 7.91016 28.5868 7.91016 29.3945C7.91016 30.2022 8.56729 30.8594 9.375 30.8594Z" fill="#FD6442"/>
<path d="M0 44.6289C0 47.5905 2.40947 50 5.37109 50H44.6289C47.5905 50 50 47.5905 50 44.6289V10.7422H0V44.6289ZM31.8359 22.0703H43.5547C44.3637 22.0703 45.0195 22.7262 45.0195 23.5352C45.0195 24.3441 44.3637 25 43.5547 25H31.8359C31.027 25 30.3711 24.3441 30.3711 23.5352C30.3711 22.7262 31.027 22.0703 31.8359 22.0703ZM31.8359 27.9297H43.5547C44.3637 27.9297 45.0195 28.5855 45.0195 29.3945C45.0195 30.2035 44.3637 30.8594 43.5547 30.8594H31.8359C31.027 30.8594 30.3711 30.2035 30.3711 29.3945C30.3711 28.5855 31.027 27.9297 31.8359 27.9297ZM31.8359 33.7891H43.5547C44.3637 33.7891 45.0195 34.4449 45.0195 35.2539C45.0195 36.0629 44.3637 36.7188 43.5547 36.7188H31.8359C31.027 36.7188 30.3711 36.0629 30.3711 35.2539C30.3711 34.4449 31.027 33.7891 31.8359 33.7891ZM9.375 25H12.0117L22.5586 20.6055V20.1172C22.5586 19.3082 23.2145 18.6523 24.0234 18.6523C24.8324 18.6523 25.4883 19.3082 25.4883 20.1172V38.6719C25.4883 39.4809 24.8324 40.1367 24.0234 40.1367C23.2145 40.1367 22.5586 39.4809 22.5586 38.6719V38.1836L13.7695 34.5215V40.625C13.7695 41.434 13.1137 42.0898 12.3047 42.0898C11.4957 42.0898 10.8398 41.434 10.8398 40.625V33.7891H9.375C6.95186 33.7891 4.98047 31.8177 4.98047 29.3945C4.98047 26.9714 6.95186 25 9.375 25Z" fill="black"/>
</g>
<defs>
<clipPath id="clip0_111_12018">
<rect width="50" height="50" fill="white"/>
</clipPath>
</defs>
</svg>
