<svg width="50" height="50" viewBox="0 0 50 50" fill="none" xmlns="http://www.w3.org/2000/svg">
<path d="M3.02734 44.1406V44.6289C3.02734 47.5905 5.43682 50 8.39844 50H27.9297C30.8913 50 33.3008 47.5905 33.3008 44.6289V44.1406H3.02734Z" fill="#FD6442"/>
<path d="M21.0133 4.39453L22.4781 0H13.8477L15.3125 4.39453H21.0133Z" fill="#FD6442"/>
<path d="M16.6992 23.0141V26.9869L24.5117 30.5381V19.4629L16.6992 23.0141Z" fill="#FD6442"/>
<path d="M27.9297 0H25.5675L23.46 6.32256C23.2606 6.9208 22.7009 7.32422 22.0703 7.32422H14.2578C13.6273 7.32422 13.0675 6.9208 12.8682 6.32256L10.7606 0H8.39844C5.43682 0 3.02734 2.40947 3.02734 5.37109V41.2109H33.3008V5.37109C33.3008 2.40947 30.8913 0 27.9297 0ZM27.4414 34.2773C27.4414 35.0863 26.7855 35.7422 25.9766 35.7422C25.1676 35.7422 24.5117 35.0863 24.5117 34.2773V33.7557L16.6992 30.2045V36.2305C16.6992 37.0395 16.0434 37.6953 15.2344 37.6953C14.4254 37.6953 13.7695 37.0395 13.7695 36.2305V29.3945H12.3047C9.88154 29.3945 7.91016 27.4231 7.91016 25C7.91016 22.5769 9.88154 20.6055 12.3047 20.6055H14.9171L24.5117 16.2443V15.7227C24.5117 14.9137 25.1676 14.2578 25.9766 14.2578C26.7855 14.2578 27.4414 14.9137 27.4414 15.7227V34.2773Z" fill="black"/>
<path d="M13.7695 23.5352H12.3047C11.497 23.5352 10.8398 24.1923 10.8398 25C10.8398 25.8077 11.497 26.4648 12.3047 26.4648H13.7695V23.5352Z" fill="#FD6442"/>
<path d="M40.1908 36.3942C39.6187 35.8221 39.6187 34.8947 40.1908 34.3226C42.6764 31.837 44.0455 28.5263 44.0455 25.0005C44.0455 21.4748 42.6765 18.164 40.1908 15.6783C39.6187 15.1062 39.6187 14.1788 40.1908 13.6068C40.7628 13.0347 41.6903 13.0347 42.2624 13.6068C45.3014 16.6458 46.9751 20.6921 46.9751 25.0005C46.975 29.3088 45.3014 33.3552 42.2624 36.3942C41.6903 36.9663 40.7628 36.9663 40.1908 36.3942Z" fill="#FD6442"/>
<path d="M36.0462 32.2514C35.4742 31.6793 35.4742 30.7519 36.0462 30.1798C38.9065 27.3196 38.9065 22.6821 36.0462 19.8218C35.4742 19.2498 35.4742 18.3223 36.0462 17.7503C36.6183 17.1783 37.5458 17.1783 38.1178 17.7503C42.1158 21.7483 42.1158 28.2536 38.1178 32.2515C37.5459 32.8235 36.6183 32.8235 36.0462 32.2514Z" fill="#FD6442"/>
</svg>
