<svg width="20" height="20" viewBox="0 0 20 20" fill="none" xmlns="http://www.w3.org/2000/svg">
<g clip-path="url(#clip0_111_11967)">
<path d="M10 11.4062C10.3236 11.4062 10.5859 11.1439 10.5859 10.8203C10.5859 10.4967 10.3236 10.2344 10 10.2344C9.6764 10.2344 9.41406 10.4967 9.41406 10.8203C9.41406 11.1439 9.6764 11.4062 10 11.4062Z" fill="black"/>
<path d="M16.7959 4.72754C16.5311 2.93926 14.9857 1.5625 13.125 1.5625C12.509 1.5625 11.9183 1.71066 11.3862 1.99535C11.0467 1.48793 10.6066 1.05305 10.09 0.718242C9.36496 0.24832 8.5234 0 7.65625 0C5.17926 0 3.16406 2.0152 3.16406 4.49219C3.16406 4.57242 3.16621 4.65258 3.17047 4.7327C1.39848 5.01172 0.0390625 6.5493 0.0390625 8.39844C0.0390625 9.56516 0.59 10.6364 1.47164 11.3251C2.00914 10.6605 2.83059 10.2344 3.75 10.2344H8.34297C8.58484 9.55238 9.23613 9.0625 10 9.0625C10.7639 9.0625 11.4152 9.55238 11.657 10.2344H16.25C17.1694 10.2344 17.9909 10.6605 18.5284 11.3251C19.41 10.6364 19.9609 9.56516 19.9609 8.39844C19.9609 6.53766 18.5842 4.99238 16.7959 4.72754ZM12.9002 8.74871C12.6714 8.97754 12.3005 8.97754 12.0716 8.74871C11.5193 8.19645 10.7836 7.89227 10 7.89227C9.21641 7.89227 8.4807 8.19641 7.9284 8.74871C7.81398 8.86313 7.66402 8.92035 7.5141 8.92035C7.36418 8.92035 7.21418 8.86313 7.0998 8.74871C6.87098 8.51992 6.87098 8.14891 7.0998 7.92008C7.8734 7.14645 8.90348 6.72039 10 6.72039H10.0001C11.0967 6.72039 12.1267 7.14645 12.9003 7.92008C13.1291 8.14887 13.1291 8.51988 12.9002 8.74871ZM14.5575 7.09141C14.3287 7.3202 13.9577 7.3202 13.7289 7.09141C11.6727 5.03527 8.32719 5.03527 6.27109 7.09141C6.15668 7.20582 6.00672 7.26305 5.8568 7.26305C5.70688 7.26305 5.55688 7.20582 5.4425 7.09141C5.21367 6.86262 5.21367 6.4916 5.4425 6.26277C7.95551 3.74973 12.0445 3.74973 14.5575 6.26277C14.7863 6.4916 14.7863 6.86262 14.5575 7.09141Z" fill="black"/>
<path d="M16.6406 16.2828L18.0078 16.8296V14.5762L16.6406 15.123V16.2828Z" fill="black"/>
<path d="M1.99219 13.1641V18.2422C1.99219 19.213 2.77918 20 3.75 20H4.33594V11.4062H3.75C2.77918 11.4062 1.99219 12.1932 1.99219 13.1641Z" fill="black"/>
<path d="M16.25 11.4062H11.657C11.4152 12.0882 10.7639 12.5781 10 12.5781C9.23613 12.5781 8.58484 12.0882 8.34297 11.4062H5.50781V20H16.25C17.2208 20 18.0078 19.213 18.0078 18.2422V18.092L15.8371 17.2237C15.6146 17.1347 15.4688 16.9193 15.4688 16.6797V14.7266C15.4688 14.487 15.6146 14.2715 15.8371 14.1825L18.0078 13.3143V13.1641C18.0078 12.1932 17.2208 11.4062 16.25 11.4062Z" fill="black"/>
</g>
<defs>
<clipPath id="clip0_111_11967">
<rect width="20" height="20" fill="white"/>
</clipPath>
</defs>
</svg>
