<svg width="20" height="20" viewBox="0 0 20 20" fill="none" xmlns="http://www.w3.org/2000/svg">
<g clip-path="url(#clip0_111_11957)">
<path d="M14.1406 0H2.14844C0.963789 0 0 0.963789 0 2.14844V3.125H14.1406V0Z" fill="black"/>
<path d="M17.8516 0H15.3125V3.125H20V2.14844C20 0.963789 19.0362 0 17.8516 0Z" fill="black"/>
<path d="M9.02344 14.6875H10.9766V16.6406H9.02344V14.6875Z" fill="black"/>
<path d="M14.4922 14.6875H16.4453V16.6406H14.4922V14.6875Z" fill="black"/>
<path d="M3.55469 14.6875H5.50781V16.6406H3.55469V14.6875Z" fill="black"/>
<path d="M0 4.29688V17.8516C0 19.0362 0.963789 20 2.14844 20H17.8516C19.0362 20 20 19.0362 20 17.8516V4.29688H0ZM6.67969 17.2266C6.67969 17.5502 6.41734 17.8125 6.09375 17.8125H2.96875C2.64516 17.8125 2.38281 17.5502 2.38281 17.2266V14.1016C2.38281 13.778 2.64516 13.5156 2.96875 13.5156H6.09375C6.41734 13.5156 6.67969 13.778 6.67969 14.1016V17.2266ZM12.1484 17.2266C12.1484 17.5502 11.8861 17.8125 11.5625 17.8125H8.4375C8.11391 17.8125 7.85156 17.5502 7.85156 17.2266V14.1016C7.85156 13.778 8.11391 13.5156 8.4375 13.5156H11.5625C11.8861 13.5156 12.1484 13.778 12.1484 14.1016V17.2266ZM17.6172 17.2266C17.6172 17.5502 17.3548 17.8125 17.0312 17.8125H13.9062C13.5827 17.8125 13.3203 17.5502 13.3203 17.2266V14.1016C13.3203 13.778 13.5827 13.5156 13.9062 13.5156H17.0312C17.3548 13.5156 17.6172 13.778 17.6172 14.1016V17.2266ZM17.6172 11.7578C17.6172 12.0814 17.3548 12.3438 17.0312 12.3438H2.96875C2.64516 12.3438 2.38281 12.0814 2.38281 11.7578V7.07031C2.38281 6.74672 2.64516 6.48438 2.96875 6.48438H17.0312C17.3548 6.48438 17.6172 6.74672 17.6172 7.07031V11.7578Z" fill="black"/>
<path d="M3.55469 11.1719H16.4453V7.65625H3.55469V11.1719ZM12.3438 8.82812C12.6673 8.82812 12.9297 9.09047 12.9297 9.41406C12.9297 9.73766 12.6673 10 12.3438 10C12.0202 10 11.7578 9.73766 11.7578 9.41406C11.7578 9.09047 12.0202 8.82812 12.3438 8.82812ZM10 8.82812C10.3236 8.82812 10.5859 9.09047 10.5859 9.41406C10.5859 9.73766 10.3236 10 10 10C9.67641 10 9.41406 9.73766 9.41406 9.41406C9.41406 9.09047 9.67641 8.82812 10 8.82812ZM7.65625 8.82812C7.97984 8.82812 8.24219 9.09047 8.24219 9.41406C8.24219 9.73766 7.97984 10 7.65625 10C7.33266 10 7.07031 9.73766 7.07031 9.41406C7.07031 9.09047 7.33266 8.82812 7.65625 8.82812Z" fill="black"/>
</g>
<defs>
<clipPath id="clip0_111_11957">
<rect width="20" height="20" fill="white"/>
</clipPath>
</defs>
</svg>
