<svg width="20" height="20" viewBox="0 0 20 20" fill="none" xmlns="http://www.w3.org/2000/svg">
<g clip-path="url(#clip0_111_11977)">
<path d="M10 14.5312C10.5393 14.5312 10.9766 14.094 10.9766 13.5547C10.9766 13.0153 10.5393 12.5781 10 12.5781C9.46066 12.5781 9.02344 13.0153 9.02344 13.5547C9.02344 14.094 9.46066 14.5312 10 14.5312Z" fill="black"/>
<path d="M10 10.2344C8.16918 10.2344 6.67969 11.7239 6.67969 13.5547C6.67969 15.3855 8.16918 16.875 10 16.875C11.8308 16.875 13.3203 15.3855 13.3203 13.5547C13.3203 11.7239 11.8308 10.2344 10 10.2344ZM10 15.7031C8.81535 15.7031 7.85156 14.7393 7.85156 13.5547C7.85156 12.37 8.81535 11.4062 10 11.4062C11.1846 11.4062 12.1484 12.37 12.1484 13.5547C12.1484 14.7393 11.1846 15.7031 10 15.7031Z" fill="black"/>
<path d="M16.9628 9.61898C16.5582 9.71473 16.1365 9.76562 15.7031 9.76562C13.7353 9.76562 12.0071 8.7207 11.0436 7.15676C10.6994 7.12559 10.3509 7.10938 9.99998 7.10938C8.39393 7.10938 6.87018 7.43543 5.47115 8.07848C4.35385 8.59199 3.31576 9.30684 2.38576 10.2031C0.805957 11.7257 0.0852539 13.2423 0.0553711 13.3061C-0.018457 13.4636 -0.018457 13.6458 0.0553711 13.8034C0.085293 13.8672 0.805957 15.3838 2.38576 16.9063C3.3158 17.8026 4.35389 18.5174 5.47115 19.031C6.87018 19.674 8.39393 20 9.99998 20C11.606 20 13.1298 19.6739 14.5288 19.0309C15.6461 18.5174 16.6842 17.8025 17.6142 16.9062C19.194 15.3837 19.9147 13.8671 19.9446 13.8033C20.0184 13.6457 20.0184 13.4636 19.9446 13.306C19.8997 13.2103 18.9869 11.299 16.9628 9.61898ZM9.99998 18.0469C7.52299 18.0469 5.50779 16.0317 5.50779 13.5547C5.50779 11.0777 7.52299 9.0625 9.99998 9.0625C12.477 9.0625 14.4922 11.0777 14.4922 13.5547C14.4922 16.0317 12.477 18.0469 9.99998 18.0469Z" fill="black"/>
<path d="M15.7031 0C13.33 0 11.4062 1.92379 11.4062 4.29688C11.4062 6.66996 13.33 8.59375 15.7031 8.59375C18.0762 8.59375 20 6.66996 20 4.29688C20 1.92379 18.0762 0 15.7031 0ZM16.7629 6.82707C16.0953 6.82727 14.8455 6.87035 14.6179 6.79105C14.4303 6.72848 14.2842 6.58012 14.227 6.39406C14.13 6.07875 14.2795 5.88309 14.527 5.55902C14.7209 5.30516 15.0817 4.83258 15.6868 3.96809C15.8841 3.68609 15.9647 3.48746 15.9971 3.36477L16.0061 3.29504C15.9912 3.09109 15.8204 2.92969 15.6127 2.92969C15.4246 2.92969 15.2619 3.06316 15.2257 3.24703C15.1633 3.56457 14.8554 3.77133 14.5379 3.70902C14.2203 3.64664 14.0135 3.33867 14.0759 3.02113C14.2196 2.28914 14.866 1.75781 15.6127 1.75781C16.4764 1.75781 17.1791 2.46043 17.1791 3.3241C17.1769 3.40352 17.1596 3.52645 17.145 3.60465C17.0705 3.92594 16.9029 4.2743 16.6469 4.64008C16.3475 5.06777 16.1063 5.40215 15.9145 5.66285C16.1816 5.66141 16.4714 5.65879 16.7482 5.65531C16.7506 5.65527 16.7532 5.65527 16.7557 5.65527C17.0759 5.65527 17.3374 5.91277 17.3414 6.23387C17.3454 6.55734 17.0864 6.82297 16.7629 6.82707Z" fill="black"/>
</g>
<defs>
<clipPath id="clip0_111_11977">
<rect width="20" height="20" fill="white"/>
</clipPath>
</defs>
</svg>
