<svg width="20" height="20" viewBox="0 0 20 20" fill="none" xmlns="http://www.w3.org/2000/svg">
<g clip-path="url(#clip0_111_11972)">
<path d="M19.4141 16.875H12.7661L12.509 17.6462C12.4293 17.8855 12.2054 18.0469 11.9531 18.0469H8.04688C7.79465 18.0469 7.57074 17.8855 7.49098 17.6462L7.23391 16.875H0.585938C0.262344 16.875 0 17.1373 0 17.4609V17.8516C0 19.0381 0.961875 20 2.14844 20H17.8516C19.0381 20 20 19.0381 20 17.8516V17.4609C20 17.1373 19.7377 16.875 19.4141 16.875Z" fill="black"/>
<path d="M10.5938 12.4904C11.6152 12.3933 12.4304 11.5781 12.5275 10.5566C11.5061 10.6538 10.6909 11.469 10.5938 12.4904Z" fill="black"/>
<path d="M9.4025 12.4904C9.30539 11.469 8.4902 10.6538 7.46875 10.5566C7.56586 11.578 8.38109 12.3933 9.4025 12.4904Z" fill="black"/>
<path d="M10.6941 4.88508C10.716 4.75492 10.7253 4.45125 10.3906 4.28809V5.35996C10.5619 5.24445 10.6646 5.06047 10.6941 4.88508Z" fill="black"/>
<path d="M9.60773 2.44043C9.53113 2.51809 9.48723 2.61934 9.47031 2.70895C9.44324 2.85262 9.47594 2.9848 9.55359 3.0457C9.57059 3.05902 9.58883 3.07219 9.6077 3.08527L9.60773 2.44043Z" fill="black"/>
<path d="M8.21211 16.1038L8.46922 16.875H11.5308L11.7879 16.1038C11.8677 15.8645 12.0916 15.7031 12.3438 15.7031H18.8281V5.74219C18.8281 4.77293 18.0396 3.98438 17.0703 3.98438H15.0771C15.0382 6.55109 13.0857 8.66184 10.5859 8.95039V10.1668C11.1655 9.67356 11.9155 9.375 12.7344 9.375H13.125C13.4486 9.375 13.7109 9.63734 13.7109 9.96094V10.3516C13.7109 12.1168 12.3261 13.5641 10.5859 13.6657V14.3359C10.5859 14.6595 10.3236 14.9219 10 14.9219C9.67641 14.9219 9.41406 14.6595 9.41406 14.3359V13.6657C7.67387 13.5641 6.28906 12.1168 6.28906 10.3516V9.96094C6.28906 9.63734 6.55141 9.375 6.875 9.375H7.26562C8.08445 9.375 8.83449 9.67356 9.41406 10.1668V8.95039C6.91434 8.66188 4.96184 6.55109 4.92285 3.98438H2.92969C1.96043 3.98438 1.17188 4.77293 1.17188 5.74219V15.7031H7.65625C7.90844 15.7031 8.13234 15.8645 8.21211 16.1038Z" fill="black"/>
<path d="M10 0C7.84262 0 6.09375 1.74887 6.09375 3.90625C6.09375 6.06363 7.84262 7.8125 10 7.8125C12.1574 7.8125 13.9062 6.06363 13.9062 3.90625C13.9062 1.74887 12.1574 0 10 0ZM11.4645 5.01484C11.3786 5.52621 10.9927 6.04449 10.3906 6.2068V6.44531C10.3906 6.66102 10.2157 6.83594 9.99996 6.83594C9.78422 6.83594 9.60934 6.66102 9.60934 6.44531V6.24445C9.31191 6.21438 9.07074 6.1291 8.74215 5.9141C8.5616 5.79602 8.51102 5.55391 8.6291 5.37336C8.74719 5.19285 8.98934 5.14219 9.16984 5.26031C9.34801 5.37684 9.46469 5.43223 9.6093 5.45773V3.97633C9.38371 3.87187 9.2134 3.77086 9.07305 3.66082C8.76379 3.41824 8.62242 2.9982 8.70414 2.56465C8.79301 2.09309 9.12152 1.71777 9.56148 1.58527C9.5775 1.58043 9.5934 1.57617 9.6093 1.57184V1.36719C9.6093 1.15148 9.78418 0.976562 9.99992 0.976562C10.2157 0.976562 10.3905 1.15148 10.3905 1.36719V1.54527C10.7055 1.6109 10.9464 1.75836 11.0754 1.8773C11.1527 1.94867 11.2014 2.05059 11.2014 2.1641C11.2014 2.37984 11.0265 2.55473 10.8108 2.55473C10.7086 2.55473 10.6201 2.51957 10.5505 2.45535C10.5452 2.45082 10.4887 2.40328 10.3906 2.36062V3.45266C10.4487 3.47414 10.5068 3.49504 10.5639 3.5152C11.2147 3.74527 11.5766 4.34793 11.4645 5.01484Z" fill="black"/>
</g>
<defs>
<clipPath id="clip0_111_11972">
<rect width="20" height="20" fill="white"/>
</clipPath>
</defs>
</svg>
