<svg width="20" height="20" viewBox="0 0 20 20" fill="none" xmlns="http://www.w3.org/2000/svg">
<g clip-path="url(#clip0_111_11962)">
<path d="M11.7969 0H2.14844C0.963789 0 0 0.963789 0 2.14844V3.125H11.7969V0Z" fill="black"/>
<path d="M16.875 2.14844C16.875 0.963789 15.9112 0 14.7266 0H12.9688V3.125H16.875V2.14844Z" fill="black"/>
<path d="M4.68828 7.36621C4.18969 7.54305 3.79402 7.93871 3.61719 8.43731H4.68828V7.36621Z" fill="black"/>
<path d="M5.27422 10.7811C6.24348 10.7811 7.03203 9.9925 7.03203 9.02324C7.03203 8.25938 6.54215 7.60809 5.86016 7.36621V9.02324C5.86016 9.34684 5.59781 9.60918 5.27422 9.60918H3.61719C3.85906 10.2912 4.51035 10.7811 5.27422 10.7811Z" fill="black"/>
<path d="M18.6328 18.0469H13.5547C12.7996 18.0469 12.1875 18.659 12.1875 19.4141C12.1875 19.7377 12.4498 20 12.7734 20H19.4141C19.7377 20 20 19.7377 20 19.4141C20 18.659 19.3879 18.0469 18.6328 18.0469Z" fill="black"/>
<path d="M13.9453 10.0391C13.9453 10.4705 14.2951 10.8203 14.7266 10.8203H17.4609C17.8924 10.8203 18.2422 10.4705 18.2422 10.0391C18.2422 9.60758 17.8924 9.25781 17.4609 9.25781H14.7266C14.2951 9.25781 13.9453 9.60758 13.9453 10.0391Z" fill="black"/>
<path d="M14.9234 11.9922V12.3004C14.9234 13.1182 14.6813 13.9178 14.2276 14.5984C13.7714 15.2826 13.4873 16.0635 13.3945 16.875H18.796C18.7032 16.0635 18.4191 15.2826 17.9629 14.5984C17.5093 13.9179 17.2671 13.1182 17.2671 12.3004V11.9922H14.9234Z" fill="black"/>
<path d="M13.251 13.9484C13.5775 13.4587 13.75 12.8889 13.75 12.3004V11.9922C13.75 11.9072 13.7593 11.8245 13.7764 11.7446C13.1787 11.4103 12.7734 10.7713 12.7734 10.0391C12.7734 9.26398 13.2273 8.59297 13.8832 8.27766C13.7956 8.02875 13.75 7.76566 13.75 7.5C13.75 6.20766 14.8014 5.15625 16.0938 5.15625C16.3676 5.15625 16.6305 5.20391 16.875 5.29063V4.29688H0V15.8984C0 17.085 0.961875 18.0469 2.14844 18.0469H11.4165C11.6157 17.7368 11.8804 17.4726 12.1909 17.274C12.2256 16.0862 12.5899 14.9401 13.251 13.9484ZM5.27344 6.09375C6.88887 6.09375 8.20312 7.40801 8.20312 9.02344C8.20312 10.6389 6.88887 11.9531 5.27344 11.9531C3.65801 11.9531 2.34375 10.6389 2.34375 9.02344C2.34375 7.40801 3.65801 6.09375 5.27344 6.09375ZM11.1328 15.6641C11.1328 15.9877 10.8705 16.25 10.5469 16.25H2.92969C2.60609 16.25 2.34375 15.9877 2.34375 15.6641C2.34375 15.3405 2.60609 15.0781 2.92969 15.0781H5.27344V14.1016C5.27344 13.778 5.53578 13.5156 5.85938 13.5156C6.18297 13.5156 6.44531 13.778 6.44531 14.1016V15.0781H7.61719V12.9297C7.61719 12.6061 7.87953 12.3438 8.20312 12.3438C8.52672 12.3438 8.78906 12.6061 8.78906 12.9297V15.0781H9.96094V11.7578C9.96094 11.4342 10.2233 11.1719 10.5469 11.1719C10.8705 11.1719 11.1328 11.4342 11.1328 11.7578V15.6641Z" fill="black"/>
<path d="M14.9219 7.5C14.9219 7.71352 14.9793 7.91352 15.079 8.08594H17.1084C17.2082 7.91352 17.2656 7.71352 17.2656 7.5C17.2656 6.85277 16.7409 6.32812 16.0937 6.32812C15.4465 6.32812 14.9219 6.85277 14.9219 7.5Z" fill="black"/>
</g>
<defs>
<clipPath id="clip0_111_11962">
<rect width="20" height="20" fill="white"/>
</clipPath>
</defs>
</svg>
