<svg width="20" height="20" viewBox="0 0 20 20" fill="none" xmlns="http://www.w3.org/2000/svg">
<g clip-path="url(#clip0_111_12512)">
<path fill-rule="evenodd" clip-rule="evenodd" d="M4.09164 19.8892C4.25206 20.0369 4.49794 20.0369 4.65836 19.8892C4.65836 19.8892 6.12292 18.5352 7.29375 16.646C8.09375 15.3562 8.75 13.8196 8.75 12.2917C8.75 9.87708 6.78958 7.91667 4.375 7.91667C1.96042 7.91667 0 9.87708 0 12.2917C0 13.8196 0.656248 15.3562 1.45625 16.646C2.62708 18.5352 4.09164 19.8892 4.09164 19.8892ZM8.23959 19.1667H6.57293C6.34376 19.1667 6.15626 19.3533 6.15626 19.5833C6.15626 19.8133 6.34376 20 6.57293 20H8.23959C8.47084 20 8.65626 19.8133 8.65626 19.5833C8.65626 19.3533 8.47084 19.1667 8.23959 19.1667ZM11.5729 19.1667C11 19.1667 10.4396 19.1667 9.90626 19.1667C9.67709 19.1667 9.48959 19.3533 9.48959 19.5833C9.48959 19.8133 9.67709 20 9.90626 20H11.5729C11.8042 20 11.9896 19.8133 11.9896 19.5833C11.9896 19.3533 11.8042 19.1667 11.5729 19.1667ZM14.9063 19.1667C14.3667 19.1667 13.8042 19.1667 13.2396 19.1667C13.0104 19.1667 12.8229 19.3533 12.8229 19.5833C12.8229 19.8133 13.0104 20 13.2396 20H14.9063C15.1375 20 15.3229 19.8133 15.3229 19.5833C15.3229 19.3533 15.1375 19.1667 14.9063 19.1667ZM17.9208 18.7387C17.525 18.9929 17.0583 19.1467 16.5583 19.1648C16.3292 19.1731 16.1479 19.3665 16.1583 19.5962C16.1667 19.8262 16.3583 20.006 16.5896 19.9977C17.2437 19.974 17.8542 19.7723 18.3708 19.44C18.5646 19.3156 18.6208 19.0577 18.4958 18.8642C18.3708 18.6706 18.1146 18.6146 17.9208 18.7387ZM19.1604 16.2796C19.1646 16.3387 19.1667 16.3983 19.1667 16.4583C19.1667 16.8973 19.0625 17.3119 18.8771 17.6785C18.7729 17.8838 18.8562 18.1346 19.0604 18.2383C19.2667 18.3421 19.5167 18.2598 19.6208 18.0546C19.8625 17.5748 20 17.0325 20 16.4583C20 16.3802 19.9979 16.3025 19.9917 16.2256C19.9771 15.996 19.7792 15.8219 19.55 15.8369C19.3209 15.8517 19.1458 16.0502 19.1604 16.2796ZM17.6083 14.0054C18.0479 14.2119 18.4229 14.5335 18.6958 14.9312C18.825 15.121 19.0854 15.1696 19.275 15.0398C19.4646 14.91 19.5125 14.6504 19.3833 14.4606C19.0271 13.941 18.5375 13.521 17.9625 13.251C17.7542 13.1533 17.5063 13.2429 17.4083 13.451C17.3104 13.6592 17.4 13.9075 17.6083 14.0054ZM4.375 10.4167C5.41042 10.4167 6.25 11.2569 6.25 12.2917C6.25 13.3265 5.41042 14.1667 4.375 14.1667C3.33958 14.1667 2.5 13.3265 2.5 12.2917C2.5 11.2569 3.33958 10.4167 4.375 10.4167ZM11.0021 13.2515C11.4333 13.5731 11.9583 13.75 12.5 13.75H12.8292C13.0583 13.75 13.2458 13.5633 13.2458 13.3333C13.2458 13.1033 13.0583 12.9167 12.8292 12.9167H12.5C12.1375 12.9167 11.7875 12.7987 11.5021 12.5842C11.3187 12.4465 11.0562 12.484 10.9187 12.6681C10.7812 12.8523 10.8188 13.1135 11.0021 13.2515ZM14.4958 13.75H16.1625C16.3917 13.75 16.5792 13.5633 16.5792 13.3333C16.5792 13.1033 16.3917 12.9167 16.1625 12.9167H14.4958C14.2646 12.9167 14.0792 13.1033 14.0792 13.3333C14.0792 13.5633 14.2646 13.75 14.4958 13.75ZM10.5417 9.69437C10.2021 10.1217 10 10.6623 10 11.25C10 11.3577 10.0063 11.4646 10.0209 11.57C10.05 11.7981 10.2584 11.9594 10.4875 11.93C10.7146 11.9004 10.8771 11.6915 10.8479 11.4633C10.8375 11.3929 10.8333 11.3217 10.8333 11.25C10.8333 10.8581 10.9687 10.4975 11.1958 10.2127C11.3375 10.0327 11.3083 9.77021 11.1271 9.62729C10.9479 9.48417 10.6854 9.51417 10.5417 9.69437ZM13.9583 8.74646C13.9583 8.74646 13.2687 8.74708 12.4979 8.74792C12.4146 8.74792 12.3313 8.75229 12.25 8.76042C12.0208 8.78313 11.8542 8.9875 11.8771 9.21625C11.9 9.445 12.1042 9.61229 12.3333 9.58958C12.3875 9.58417 12.4437 9.58125 12.5 9.58125C13.2687 9.58042 13.9583 9.57979 13.9583 9.57979C14.1896 9.57958 14.375 9.39271 14.375 9.16271C14.375 8.93271 14.1875 8.74625 13.9583 8.74646ZM16.175 9.47542C16.3333 9.61938 16.575 9.61938 16.7333 9.47542C16.7333 9.47542 17.8979 8.42229 18.8291 6.95271C19.4687 5.94146 19.9917 4.73562 19.9917 3.53771C19.9917 1.58521 18.4062 0 16.4542 0C14.5021 0 12.9167 1.58521 12.9167 3.53771C12.9167 4.73562 13.4396 5.94146 14.0792 6.95271C15.0104 8.42229 16.175 9.47542 16.175 9.47542ZM16.4542 2.08333C17.2604 2.08333 17.9125 2.73688 17.9125 3.54167C17.9125 4.34646 17.2604 5 16.4542 5C15.65 5 14.9958 4.34646 14.9958 3.54167C14.9958 2.73688 15.65 2.08333 16.4542 2.08333Z" fill="#FD6442"/>
</g>
<defs>
<clipPath id="clip0_111_12512">
<rect width="20" height="20" fill="white"/>
</clipPath>
</defs>
</svg>
