<svg width="20" height="20" viewBox="0 0 20 20" fill="none" xmlns="http://www.w3.org/2000/svg">
<g clip-path="url(#clip0_111_12502)">
<path d="M19.2336 4.08383C18.4662 3.02786 17.1223 2.07473 15.4494 1.40012C13.7855 0.729183 11.8537 0.358129 10.0096 0.355512C8.16531 0.350902 6.23105 0.718129 4.5648 1.38383C2.88902 2.0534 1.54191 3.00239 0.771674 4.05586C0.0319082 5.06766 -0.181295 6.15825 0.155072 7.20973C0.373314 7.8918 1.00984 8.35079 1.73937 8.35184L4.23745 8.35418C4.23831 8.35418 4.23913 8.35418 4.23995 8.35418C4.73808 8.35414 5.20609 8.1361 5.52413 7.75567C5.83882 7.3793 5.96913 6.88743 5.88179 6.4061C5.87921 6.39196 5.87613 6.37793 5.87257 6.36399L5.74113 5.85297C6.46902 5.50567 8.11824 4.83465 10.0019 4.84532C11.8841 4.85496 13.5322 5.52559 14.261 5.87305L14.1274 6.38118C14.1236 6.39559 14.1204 6.41004 14.1177 6.42461C14.029 6.90567 14.158 7.39789 14.4715 7.77516C14.7891 8.15719 15.2574 8.37664 15.7568 8.37739L18.2549 8.37973C18.2557 8.37973 18.2566 8.37973 18.2574 8.37973C18.9855 8.37969 19.6223 7.92286 19.8421 7.24219C20.1817 6.19098 19.9713 5.09887 19.2336 4.08383Z" fill="#FD6442"/>
<path d="M15.647 10.9304L13.7841 8.9743C13.6715 8.85602 13.5153 8.7891 13.352 8.7891H12.1481V7.9757C12.1481 7.64613 11.8809 7.37891 11.5513 7.37891C11.2217 7.37891 10.9545 7.64609 10.9545 7.9757V8.7891H9.04348V7.9757C9.04348 7.64613 8.77629 7.37891 8.44668 7.37891C8.11707 7.37891 7.84988 7.64609 7.84988 7.9757V8.7891H6.64602C6.4827 8.7891 6.32648 8.85605 6.21387 8.9743L4.35098 10.9304C2.89035 12.464 2.08594 14.475 2.08594 16.5929V19.0481C2.08594 19.3777 2.35313 19.6449 2.68273 19.6449H17.3152C17.6448 19.6449 17.912 19.3777 17.912 19.0481V16.5929C17.9121 14.475 17.1077 12.4641 15.647 10.9304ZM9.99898 17.4634C8.27672 17.4634 6.87559 16.0623 6.87559 14.34C6.87559 12.6178 8.27676 11.2166 9.99898 11.2166C11.7212 11.2166 13.1224 12.6178 13.1224 14.34C13.1224 16.0623 11.7212 17.4634 9.99898 17.4634Z" fill="#FD6442"/>
<path d="M10.0001 12.4102C8.93598 12.4102 8.07031 13.2759 8.07031 14.34C8.07031 15.4041 8.93602 16.2698 10.0001 16.2698C11.0642 16.2698 11.9299 15.4041 11.9299 14.34C11.9299 13.2759 11.0642 12.4102 10.0001 12.4102Z" fill="#FD6442"/>
</g>
<defs>
<clipPath id="clip0_111_12502">
<rect width="20" height="20" fill="white"/>
</clipPath>
</defs>
</svg>
