<svg width="20" height="20" viewBox="0 0 20 20" fill="none" xmlns="http://www.w3.org/2000/svg">
<g clip-path="url(#clip0_111_12508)">
<path fill-rule="evenodd" clip-rule="evenodd" d="M10 0C4.47734 0 0 4.47734 0 10C0 15.5227 4.47734 20 10 20C15.5227 20 20 15.5227 20 10C20 4.47734 15.5227 0 10 0ZM14.6352 6.80078C14.4848 8.38203 13.8336 12.2191 13.5023 13.9902C13.3621 14.7398 13.0859 14.991 12.8188 15.0156C12.2383 15.0691 11.7973 14.6316 11.2348 14.2629C10.3547 13.6859 9.85742 13.327 9.00312 12.7641C8.01562 12.1133 8.65586 11.7559 9.21836 11.1715C9.36563 11.0184 11.9242 8.69102 11.9738 8.48008C11.9801 8.45352 11.9859 8.35508 11.9273 8.30312C11.8687 8.25117 11.7824 8.26914 11.7203 8.2832C11.632 8.30313 10.2258 9.23242 7.50234 11.0711C7.10312 11.3453 6.7418 11.4785 6.41758 11.4719C6.06055 11.4641 5.37383 11.2699 4.86328 11.1039C4.23711 10.9004 3.73945 10.7926 3.78281 10.4469C3.80508 10.2668 4.05312 10.0828 4.52656 9.89453C7.4418 8.62422 9.38555 7.78711 10.3582 7.38242C13.1355 6.22738 13.7125 6.02656 14.0886 6.01992C14.5598 6.0116 14.6735 6.40051 14.6352 6.80078Z" fill="#FD6442"/>
</g>
<defs>
<clipPath id="clip0_111_12508">
<rect width="20" height="20" fill="white"/>
</clipPath>
</defs>
</svg>
