<svg width="40" height="40" viewBox="0 0 40 40" fill="none" xmlns="http://www.w3.org/2000/svg">
<path d="M13.8984 30.7344L19.2969 37.25C19.4687 37.4609 19.7265 37.5781 20 37.5781C20.2734 37.5781 20.5312 37.4609 20.7031 37.25L26.1015 30.7344C26.4219 30.3438 26.3672 29.7734 25.9844 29.4531C25.5937 29.1328 25.0234 29.1875 24.7031 29.5703L20.914 34.1406L20.914 3.33594C20.914 2.83594 20.5078 2.42187 20 2.42187C19.5 2.42187 19.0859 2.82812 19.0859 3.33594L19.0859 34.1406L15.2969 29.5703C15.1172 29.3516 14.8594 29.2422 14.5937 29.2422C14.3906 29.2422 14.1797 29.3125 14.0156 29.4531C13.6328 29.7734 13.5781 30.3516 13.8984 30.7344Z" fill="#FD6442"/>
</svg>
